<mxfile host="app.diagrams.net" modified="2023-08-29T08:53:24.807Z" agent="Mozilla/5.0 (Macintosh; Intel Mac OS X 10_15_7) AppleWebKit/537.36 (KHTML, like Gecko) Chrome/116.0.0.0 Safari/537.36" etag="dN2lB_5TdiqMv6drDHlt" version="21.6.9" type="device">
  <diagram name="Page-1" id="ULQhH9m5CKpTQdlPuyGA">
    <mxGraphModel dx="2231" dy="1949" grid="1" gridSize="10" guides="1" tooltips="1" connect="1" arrows="1" fold="1" page="1" pageScale="1" pageWidth="850" pageHeight="1100" math="0" shadow="0">
      <root>
        <mxCell id="0" />
        <mxCell id="1" parent="0" />
        <mxCell id="o0y_N4TyBH823rqE6YDu-34" value="" style="rounded=0;whiteSpace=wrap;html=1;" parent="1" vertex="1">
          <mxGeometry x="-40" y="-160" width="1400" height="560" as="geometry" />
        </mxCell>
        <mxCell id="o0y_N4TyBH823rqE6YDu-1" value="" style="rounded=0;whiteSpace=wrap;html=1;" parent="1" vertex="1">
          <mxGeometry x="80" y="200" width="1160" height="160" as="geometry" />
        </mxCell>
        <mxCell id="o0y_N4TyBH823rqE6YDu-2" value="main(null)" style="rounded=0;whiteSpace=wrap;html=1;fillColor=#dae8fc;strokeColor=#6c8ebf;" parent="1" vertex="1">
          <mxGeometry x="120" y="280" width="120" height="40" as="geometry" />
        </mxCell>
        <mxCell id="o0y_N4TyBH823rqE6YDu-3" value="main(null)" style="rounded=0;whiteSpace=wrap;html=1;fillColor=#dae8fc;strokeColor=#6c8ebf;" parent="1" vertex="1">
          <mxGeometry x="440" y="280" width="120" height="40" as="geometry" />
        </mxCell>
        <mxCell id="o0y_N4TyBH823rqE6YDu-4" value="sumTailOptimal(3, 0)" style="rounded=0;whiteSpace=wrap;html=1;fillColor=#e3c800;strokeColor=#B09500;fontColor=#000000;" parent="1" vertex="1">
          <mxGeometry x="440" y="240" width="120" height="40" as="geometry" />
        </mxCell>
        <mxCell id="o0y_N4TyBH823rqE6YDu-5" value="main(null)" style="rounded=0;whiteSpace=wrap;html=1;fillColor=#dae8fc;strokeColor=#6c8ebf;" parent="1" vertex="1">
          <mxGeometry x="600" y="280" width="120" height="40" as="geometry" />
        </mxCell>
        <mxCell id="o0y_N4TyBH823rqE6YDu-6" value="sumTailOptimal(2, 3)" style="rounded=0;whiteSpace=wrap;html=1;fillColor=#ffe6cc;strokeColor=#d79b00;" parent="1" vertex="1">
          <mxGeometry x="600" y="240" width="120" height="40" as="geometry" />
        </mxCell>
        <mxCell id="o0y_N4TyBH823rqE6YDu-8" value="main(null)" style="rounded=0;whiteSpace=wrap;html=1;fillColor=#dae8fc;strokeColor=#6c8ebf;" parent="1" vertex="1">
          <mxGeometry x="760" y="280" width="120" height="40" as="geometry" />
        </mxCell>
        <mxCell id="o0y_N4TyBH823rqE6YDu-9" value="sumTailOptimal(1, 5)" style="rounded=0;whiteSpace=wrap;html=1;fillColor=#f8cecc;strokeColor=#b85450;" parent="1" vertex="1">
          <mxGeometry x="760" y="240" width="120" height="40" as="geometry" />
        </mxCell>
        <mxCell id="o0y_N4TyBH823rqE6YDu-10" value="main(null)" style="rounded=0;whiteSpace=wrap;html=1;fillColor=#dae8fc;strokeColor=#6c8ebf;" parent="1" vertex="1">
          <mxGeometry x="920" y="280" width="120" height="40" as="geometry" />
        </mxCell>
        <mxCell id="o0y_N4TyBH823rqE6YDu-11" value="sumTailOptimal(0, 6)" style="rounded=0;whiteSpace=wrap;html=1;fillColor=#e1d5e7;strokeColor=#9673a6;" parent="1" vertex="1">
          <mxGeometry x="920" y="240" width="120" height="40" as="geometry" />
        </mxCell>
        <mxCell id="o0y_N4TyBH823rqE6YDu-12" value="main(null)" style="rounded=0;whiteSpace=wrap;html=1;fillColor=#dae8fc;strokeColor=#6c8ebf;" parent="1" vertex="1">
          <mxGeometry x="1080" y="280" width="120" height="40" as="geometry" />
        </mxCell>
        <mxCell id="o0y_N4TyBH823rqE6YDu-13" value="" style="rounded=0;whiteSpace=wrap;html=1;" parent="1" vertex="1">
          <mxGeometry x="80" y="-120" width="1160" height="240" as="geometry" />
        </mxCell>
        <mxCell id="o0y_N4TyBH823rqE6YDu-14" value="main(null)" style="rounded=0;whiteSpace=wrap;html=1;fillColor=#dae8fc;strokeColor=#6c8ebf;" parent="1" vertex="1">
          <mxGeometry x="120" y="40" width="120" height="40" as="geometry" />
        </mxCell>
        <mxCell id="o0y_N4TyBH823rqE6YDu-15" value="main(null)" style="rounded=0;whiteSpace=wrap;html=1;fillColor=#dae8fc;strokeColor=#6c8ebf;" parent="1" vertex="1">
          <mxGeometry x="280" y="40" width="120" height="40" as="geometry" />
        </mxCell>
        <mxCell id="o0y_N4TyBH823rqE6YDu-16" value="sumRecursive(3)" style="rounded=0;whiteSpace=wrap;html=1;fillColor=#d5e8d4;strokeColor=#82b366;" parent="1" vertex="1">
          <mxGeometry x="280" width="120" height="40" as="geometry" />
        </mxCell>
        <mxCell id="o0y_N4TyBH823rqE6YDu-17" value="main(null)" style="rounded=0;whiteSpace=wrap;html=1;fillColor=#dae8fc;strokeColor=#6c8ebf;" parent="1" vertex="1">
          <mxGeometry x="440" y="40" width="120" height="40" as="geometry" />
        </mxCell>
        <mxCell id="o0y_N4TyBH823rqE6YDu-19" value="main(null)" style="rounded=0;whiteSpace=wrap;html=1;fillColor=#dae8fc;strokeColor=#6c8ebf;" parent="1" vertex="1">
          <mxGeometry x="600" y="40" width="120" height="40" as="geometry" />
        </mxCell>
        <mxCell id="o0y_N4TyBH823rqE6YDu-21" value="main(null)" style="rounded=0;whiteSpace=wrap;html=1;fillColor=#dae8fc;strokeColor=#6c8ebf;" parent="1" vertex="1">
          <mxGeometry x="760" y="40" width="120" height="40" as="geometry" />
        </mxCell>
        <mxCell id="o0y_N4TyBH823rqE6YDu-23" value="main(null)" style="rounded=0;whiteSpace=wrap;html=1;fillColor=#dae8fc;strokeColor=#6c8ebf;" parent="1" vertex="1">
          <mxGeometry x="920" y="40" width="120" height="40" as="geometry" />
        </mxCell>
        <mxCell id="o0y_N4TyBH823rqE6YDu-24" value="sumRecursive(3)" style="rounded=0;whiteSpace=wrap;html=1;fillColor=#d5e8d4;strokeColor=#82b366;" parent="1" vertex="1">
          <mxGeometry x="440" width="120" height="40" as="geometry" />
        </mxCell>
        <mxCell id="o0y_N4TyBH823rqE6YDu-25" value="sumRecursive(3)" style="rounded=0;whiteSpace=wrap;html=1;fillColor=#d5e8d4;strokeColor=#82b366;" parent="1" vertex="1">
          <mxGeometry x="600" width="120" height="40" as="geometry" />
        </mxCell>
        <mxCell id="o0y_N4TyBH823rqE6YDu-26" value="sumRecursive(3)" style="rounded=0;whiteSpace=wrap;html=1;fillColor=#d5e8d4;strokeColor=#82b366;" parent="1" vertex="1">
          <mxGeometry x="760" width="120" height="40" as="geometry" />
        </mxCell>
        <mxCell id="o0y_N4TyBH823rqE6YDu-27" value="sumRecursive(2)" style="rounded=0;whiteSpace=wrap;html=1;fillColor=#ffe6cc;strokeColor=#d79b00;" parent="1" vertex="1">
          <mxGeometry x="440" y="-40" width="120" height="40" as="geometry" />
        </mxCell>
        <mxCell id="o0y_N4TyBH823rqE6YDu-28" value="sumRecursive(2)" style="rounded=0;whiteSpace=wrap;html=1;fillColor=#ffe6cc;strokeColor=#d79b00;" parent="1" vertex="1">
          <mxGeometry x="600" y="-40" width="120" height="40" as="geometry" />
        </mxCell>
        <mxCell id="o0y_N4TyBH823rqE6YDu-29" value="sumRecursive(2)" style="rounded=0;whiteSpace=wrap;html=1;fillColor=#ffe6cc;strokeColor=#d79b00;" parent="1" vertex="1">
          <mxGeometry x="760" y="-40" width="120" height="40" as="geometry" />
        </mxCell>
        <mxCell id="o0y_N4TyBH823rqE6YDu-30" value="sumRecursive(1)" style="rounded=0;whiteSpace=wrap;html=1;fillColor=#f8cecc;strokeColor=#b85450;" parent="1" vertex="1">
          <mxGeometry x="600" y="-80" width="120" height="40" as="geometry" />
        </mxCell>
        <mxCell id="o0y_N4TyBH823rqE6YDu-32" value="sumRecursive(3)" style="rounded=0;whiteSpace=wrap;html=1;fillColor=#d5e8d4;strokeColor=#82b366;" parent="1" vertex="1">
          <mxGeometry x="920" width="120" height="40" as="geometry" />
        </mxCell>
        <mxCell id="o0y_N4TyBH823rqE6YDu-33" value="main(null)" style="rounded=0;whiteSpace=wrap;html=1;fillColor=#dae8fc;strokeColor=#6c8ebf;" parent="1" vertex="1">
          <mxGeometry x="1080" y="40" width="120" height="40" as="geometry" />
        </mxCell>
        <mxCell id="MYoP7zA0tegYrqxjU6yw-3" value="main(null)" style="rounded=0;whiteSpace=wrap;html=1;fillColor=#dae8fc;strokeColor=#6c8ebf;" vertex="1" parent="1">
          <mxGeometry x="280" y="280" width="120" height="40" as="geometry" />
        </mxCell>
        <mxCell id="MYoP7zA0tegYrqxjU6yw-4" value="sumTailOptimal(3)" style="rounded=0;whiteSpace=wrap;html=1;fillColor=#d5e8d4;strokeColor=#82b366;" vertex="1" parent="1">
          <mxGeometry x="280" y="240" width="120" height="40" as="geometry" />
        </mxCell>
      </root>
    </mxGraphModel>
  </diagram>
</mxfile>
